<svg width="1400" height="1400" viewBox="0 0 1400 1400" fill="none" xmlns="http://www.w3.org/2000/svg">
<circle cx="700" cy="700" r="700" fill="#E6E8E6"/>
<path d="M458.566 111.445L562.914 210.575C602.045 247.096 622.914 296.661 622.914 351.443C622.914 403.617 643.784 453.182 680.306 489.703L693.349 502.746L813.349 114.054" fill="#3772FF"/>
<path d="M103.848 458.388L247.326 453.171C299.5 450.562 351.674 471.432 388.195 507.953C424.717 544.474 474.282 562.735 526.456 562.735H544.717L351.674 205.347" fill="#3772FF"/>
<path d="M103.826 954.016L200.348 849.669C236.87 810.539 286.435 787.061 338.609 787.061C390.783 787.061 437.739 763.583 474.261 727.061L487.304 714.018L96 601.845" fill="#3772FF"/>
<path d="M458.608 1298.39L450.783 1154.91C448.174 1102.74 466.435 1050.57 502.957 1011.44C536.87 974.916 557.739 922.742 555.13 873.178V854.917L200.348 1055.78" fill="#3772FF"/>
<path d="M954.221 1287.96L847.265 1194.04C808.134 1160.13 784.656 1110.57 782.047 1055.79C779.438 1003.61 755.96 956.656 719.438 920.134L706.395 907.091L602.047 1301" fill="#3772FF"/>
<path d="M1293.41 925.363L1149.93 935.797C1097.76 941.015 1045.58 922.754 1006.45 886.233C967.324 852.32 917.759 834.059 865.585 836.668H847.324L1056.02 1186.23" fill="#3772FF"/>
<path d="M1269.93 432.281L1178.63 541.846C1144.72 580.976 1095.15 607.062 1042.98 609.671C990.804 612.28 943.848 635.758 909.935 674.888L899.5 687.931L1296.02 781.844" fill="#3772FF"/>
<path d="M902.082 101L915.126 244.477C920.343 296.651 904.691 348.824 868.17 390.563C834.257 429.693 818.604 479.258 821.213 531.431L823.822 549.692L1168.17 333.172" fill="#3772FF"/>
<circle cx="705" cy="705" r="150" fill="#FDCA40"/>
</svg>
