<svg width="4434" height="1856" viewBox="0 0 4434 1856" fill="none" xmlns="http://www.w3.org/2000/svg">
<circle cx="750" cy="773" r="750" fill="black"/>
<path d="M819 1173.4C779 1108.6 759 961.8 759 733L760.2 659.8C760.2 655 761.4 651.4 763.8 649C766.2 646.6 768.6 645.4 771 645.4L774.6 644.2C841 637 902.6 610.2 959.4 563.8C1017 516.6 1045.8 462.6 1045.8 401.8C1045.8 377.8 1039.4 357 1026.6 339.4C1014.6 321 998.2 307.4 977.4 298.6C957.4 289 936.6 282.2 915 278.2C894.2 273.4 873.4 271 852.6 271C815.8 271 779.4 277 743.4 289C707.4 301 675.8 320.6 648.6 347.8C621.4 375 607.8 407 607.8 443.8C607.8 466.2 614.2 488.6 627 511C630.2 519 631.8 524.2 631.8 526.6C631.8 531.4 629.4 533.8 624.6 533.8C617.4 533.8 608.2 530.2 597 523C547.4 493.4 522.6 457.8 522.6 416.2C522.6 361.8 555.8 319 622.2 287.8C689.4 256.6 768.2 241 858.6 241C889 241 918.6 243 947.4 247C977 251 1008.6 257.8 1042.2 267.4C1075.8 277 1102.6 292.6 1122.6 314.2C1143.4 335 1153.8 360.6 1153.8 391C1153.8 431.8 1135.8 471.8 1099.8 511C1064.6 550.2 1025.4 581.8 982.2 605.8C939 629.8 898.2 646.6 859.8 656.2C854.2 660.2 851.4 664.6 851.4 669.4C851.4 698.2 852.2 731 853.8 767.8C855.4 803.8 858.6 854.6 863.4 920.2C869 985 879 1043.8 893.4 1096.6C908.6 1148.6 927.4 1185 949.8 1205.8C953.8 1209.8 955.8 1213.4 955.8 1216.6C955.8 1223 945.8 1226.2 925.8 1226.2C902.6 1226.2 882.2 1221.8 864.6 1213C847 1204.2 835 1196.2 828.6 1189C823 1181.8 819.8 1176.6 819 1173.4ZM546.6 968.2C529.8 1006.6 511.4 1041.4 491.4 1072.6C471.4 1103.8 453 1128.2 436.2 1145.8C419.4 1163.4 403.8 1178.2 389.4 1190.2C375 1202.2 363.4 1210.2 354.6 1214.2L342.6 1220.2C337.8 1222.6 333 1223.8 328.2 1223.8C319.4 1223.8 315 1218.6 315 1208.2L318.6 1193.8C326.6 1171.4 353.8 1115 400.2 1024.6C447.4 933.4 491.8 851 533.4 777.4C571.8 708.6 608.6 644.6 643.8 585.4C679.8 525.4 705.8 483 721.8 458.2L747 419.8C767 392.6 787.4 371.8 808.2 357.4C829 343 845.8 335.8 858.6 335.8C867.4 335.8 871.8 339 871.8 345.4C871.8 350.2 868.6 358.6 862.2 370.6C856.6 380.2 834.2 420.2 795 490.6C756.6 560.2 710.6 645.4 657 746.2C604.2 846.2 567.4 920.2 546.6 968.2Z" fill="white"/>
<path d="M1688.4 533.6C1706.4 533 1740 532.7 1789.2 532.7C1839 532.7 1872.9 533 1890.9 533.6C1959.3 536 2010.3 552.8 2043.9 584C2077.5 614.6 2094.3 656 2094.3 708.2C2094.3 752.6 2082.9 790.4 2060.1 821.6C2037.9 852.2 2006.7 872.3 1966.5 881.9C1979.1 892.1 1992 906.2 2005.2 924.2C2018.4 941.6 2036.7 968.9 2060.1 1006.1C2084.7 1045.1 2109.6 1087.4 2134.8 1133H1983.6L1881.9 944C1871.1 924.2 1861.2 911.9 1852.2 907.1C1843.8 901.7 1830.9 899 1813.5 899V1133H1688.4V533.6ZM1869.3 799.1C1899.9 799.1 1923.9 791.3 1941.3 775.7C1959.3 760.1 1968.3 739.1 1968.3 712.7C1968.3 688.7 1960.5 670.4 1944.9 657.8C1929.3 645.2 1906.5 638.9 1876.5 638.9H1813.5V799.1H1869.3ZM2409.81 1146.5C2334.81 1146.5 2275.71 1124.9 2232.51 1081.7C2189.91 1038.5 2168.61 978.5 2168.61 901.7C2168.61 851.9 2177.91 808.7 2196.51 772.1C2215.11 734.9 2241.21 706.4 2274.81 686.6C2309.01 666.8 2348.91 656.9 2394.51 656.9C2461.71 656.9 2513.31 678.5 2549.31 721.7C2585.31 764.9 2603.31 827.3 2603.31 908.9C2603.31 922.7 2603.01 932.9 2602.41 939.5H2296.41C2302.41 971.3 2316.21 995.6 2337.81 1012.4C2359.41 1028.6 2388.51 1036.7 2425.11 1036.7C2447.31 1036.7 2470.41 1034 2494.41 1028.6C2518.41 1022.6 2539.41 1014.8 2557.41 1005.2L2578.11 1106.9C2554.11 1119.5 2527.41 1129.1 2498.01 1135.7C2469.21 1142.9 2439.81 1146.5 2409.81 1146.5ZM2481.81 844.1C2480.01 818.3 2471.01 797.9 2454.81 782.9C2438.61 767.3 2417.01 759.5 2390.01 759.5C2364.21 759.5 2342.91 767 2326.11 782C2309.91 797 2299.71 817.7 2295.51 844.1H2481.81ZM2868.34 1146.5C2825.14 1146.5 2791.54 1135.7 2767.54 1114.1C2744.14 1091.9 2732.44 1060.7 2732.44 1020.5V778.4H2660.44V669.5H2732.44V570.5C2775.04 563.3 2817.04 557.9 2858.44 554.3V669.5H2975.44V778.4H2858.44V997.1C2858.44 1009.7 2862.04 1019.3 2869.24 1025.9C2877.04 1032.5 2887.84 1035.8 2901.64 1035.8C2918.44 1035.8 2937.64 1031.9 2959.24 1024.1L2987.14 1119.5C2948.74 1137.5 2909.14 1146.5 2868.34 1146.5ZM3131.05 476H3275.95V593H3131.05V476ZM3060.85 1024.1H3147.25V778.4H3060.85V669.5H3274.15V1024.1H3351.55V1133H3060.85V1024.1ZM3435.64 669.5H3559.84V749.6C3579.04 717.8 3601.24 694.4 3626.44 679.4C3651.64 664.4 3681.04 656.9 3714.64 656.9C3764.44 656.9 3803.44 671.9 3831.64 701.9C3859.84 731.3 3873.94 772.4 3873.94 825.2V1133H3747.04V845C3747.04 821 3741.04 802.4 3729.04 789.2C3717.04 775.4 3700.84 768.5 3680.44 768.5C3656.44 768.5 3633.64 777.5 3612.04 795.5C3590.44 813.5 3573.94 836.3 3562.54 863.9V1133H3435.64V669.5ZM4125.21 1146.5C4077.21 1146.5 4039.11 1126.1 4010.91 1085.3C3982.71 1044.5 3968.61 989 3968.61 918.8C3968.61 833.6 3990.21 768.8 4033.41 724.4C4076.61 679.4 4138.71 656.9 4219.71 656.9C4265.31 656.9 4318.71 664.1 4379.91 678.5V1133H4259.31L4262.01 1059.2H4258.41C4242.81 1087.4 4223.61 1109 4200.81 1124C4178.61 1139 4153.41 1146.5 4125.21 1146.5ZM4152.21 1035.8C4170.81 1035.8 4189.11 1025.9 4207.11 1006.1C4225.11 986.3 4241.91 959.9 4257.51 926.9V775.7C4238.31 770.3 4219.11 767.6 4199.91 767.6C4163.91 767.6 4136.61 779.9 4118.01 804.5C4100.01 829.1 4091.01 865.4 4091.01 913.4C4091.01 951.2 4096.41 981.2 4107.21 1003.4C4118.01 1025 4133.01 1035.8 4152.21 1035.8Z" fill="#FCA311"/>
</svg>
