<svg xmlns="http://www.w3.org/2000/svg" width="24" height="24" viewBox="0 0 24 24" fill="none">
  <!-- AI Circuit Board -->
  <path d="M13.5 1C13.2239 1 13 1.22386 13 1.5V6.5C13 6.77614 13.2239 7 13.5 7H18.5C18.7761 7 19 6.77614 19 6.5V1.5C19 1.22386 18.7761 1 18.5 1H13.5ZM15 2H18V6H15V2Z" fill="black"/>
  <path d="M1 13.5C1 13.2239 1.22386 13 1.5 13H6.5C6.77614 13 7 13.2239 7 13.5V18.5C7 18.7761 6.77614 19 6.5 19H1.5C1.22386 19 1 18.7761 1 18.5V13.5ZM2 15V18H6V15H2Z" fill="black"/>
  <!-- AI Brain -->
  <path d="M15.5 13C16.3284 13 17 13.6716 17 14.5V20H15V14.5C15 14.2239 14.7761 14 14.5 14H14V12.5C14 11.1193 12.8807 10 11.5 10C11.2239 10 11 10.2239 11 10.5V14.5C11 14.7761 10.7761 15 10.5 15H10V16.5C10 17.8807 11.1193 19 12.5 19C13.8807 19 15 17.8807 15 16.5V13H15.5Z" fill="black"/>
</svg>
